<?xml version="1.0" encoding="UTF-8"?>
<!DOCTYPE svg PUBLIC "-//W3C//DTD SVG 1.1//EN" "http://www.w3.org/Graphics/SVG/1.1/DTD/svg11.dtd">
<svg xmlns="http://www.w3.org/2000/svg" style="background: #ffffff; background-color: #ffffff; color-scheme: light;" xmlns:xlink="http://www.w3.org/1999/xlink" version="1.1" width="57px" height="110px" viewBox="0 0 57 110"><defs/><rect fill="#ffffff" width="100%" height="100%" x="0" y="0" style="fill: rgb(255, 255, 255);"/><g><g data-cell-id="0"><g data-cell-id="1"><g data-cell-id="i0Eyt-JpahuMwAbmDLZm-25"><g/><g data-cell-id="i0Eyt-JpahuMwAbmDLZm-22"><g><path d="M 39.95 88.46 L 47.37 88.46 M 10.26 81.49 L 18.8 81.49 M 10.26 95.42 L 18.8 95.42" fill="none" stroke="#000000" stroke-miterlimit="10" transform="rotate(90,28.82,88.46)" pointer-events="all" style="stroke: rgb(0, 0, 0);"/><path d="M 25.11 74.53 C 31.59 74.79 37.38 80.22 39.95 88.46 C 37.38 96.69 31.59 102.12 25.11 102.38 L 15.83 102.38 C 19.81 93.77 19.81 83.15 15.83 74.53 Z" fill="#ffffff" stroke="#000000" stroke-miterlimit="10" transform="rotate(90,28.82,88.46)" pointer-events="all" style="fill: rgb(255, 255, 255); stroke: rgb(0, 0, 0);"/></g></g><g data-cell-id="i0Eyt-JpahuMwAbmDLZm-23"><g><path d="M 21.98 37.66 L 28.46 37.66 M -3.93 31.52 L 2.55 31.52 M -3.93 43.81 L 2.55 43.81" fill="none" stroke="#000000" stroke-miterlimit="10" transform="rotate(90,12.26,37.66)" pointer-events="all" style="stroke: rgb(0, 0, 0);"/><path d="M 2.55 25.38 L 12.26 25.38 C 17.63 25.38 21.98 30.88 21.98 37.66 C 21.98 44.45 17.63 49.95 12.26 49.95 L 2.55 49.95 Z" fill="#ffffff" stroke="#000000" stroke-miterlimit="10" transform="rotate(90,12.26,37.66)" pointer-events="all" style="fill: rgb(255, 255, 255); stroke: rgb(0, 0, 0);"/></g></g><g data-cell-id="i0Eyt-JpahuMwAbmDLZm-24"><g><path d="M 53.78 37.66 L 60.11 37.66 M 28.46 31.9 L 35.74 31.9 M 28.46 43.43 L 35.74 43.43" fill="none" stroke="#000000" stroke-miterlimit="10" transform="rotate(90,44.28,37.66)" pointer-events="all" style="stroke: rgb(0, 0, 0);"/><path d="M 41.12 26.14 C 46.65 26.35 51.58 30.85 53.78 37.66 C 51.58 44.48 46.65 48.98 41.12 49.19 L 33.21 49.19 C 36.6 42.06 36.6 33.27 33.21 26.14 Z" fill="#ffffff" stroke="#000000" stroke-miterlimit="10" transform="rotate(90,44.28,37.66)" pointer-events="all" style="fill: rgb(255, 255, 255); stroke: rgb(0, 0, 0);"/></g></g></g><g data-cell-id="i0Eyt-JpahuMwAbmDLZm-26"><g><path d="M 1 20 L 6.12 21.47" fill="none" stroke="#000000" stroke-miterlimit="10" pointer-events="stroke" style="stroke: rgb(0, 0, 0);"/></g></g><g data-cell-id="i0Eyt-JpahuMwAbmDLZm-27"><g><path d="M 1 10 L 1 20 L 1 10" fill="none" stroke="#000000" stroke-miterlimit="10" pointer-events="stroke" style="stroke: rgb(0, 0, 0);"/></g></g><g data-cell-id="i0Eyt-JpahuMwAbmDLZm-28"><g><path d="M 11 70 L 12.26 53.86" fill="none" stroke="#000000" stroke-miterlimit="10" pointer-events="stroke" style="stroke: rgb(0, 0, 0);"/></g></g><g data-cell-id="i0Eyt-JpahuMwAbmDLZm-29"><g><path d="M 11 70 L 21 70" fill="none" stroke="#000000" stroke-miterlimit="10" pointer-events="stroke" style="stroke: rgb(0, 0, 0);"/></g></g><g data-cell-id="i0Eyt-JpahuMwAbmDLZm-30"><g><path d="M 41 70 L 44.28 53.49" fill="none" stroke="#000000" stroke-miterlimit="10" pointer-events="stroke" style="stroke: rgb(0, 0, 0);"/></g></g><g data-cell-id="i0Eyt-JpahuMwAbmDLZm-31"><g><path d="M 35.78 69.9 L 41 70" fill="none" stroke="#000000" stroke-miterlimit="10" pointer-events="stroke" style="stroke: rgb(0, 0, 0);"/></g></g><g data-cell-id="i0Eyt-JpahuMwAbmDLZm-33"><g><path d="M 51 10 L 50.05 21.84" fill="none" stroke="#000000" stroke-miterlimit="10" pointer-events="stroke" style="stroke: rgb(0, 0, 0);"/></g></g><g data-cell-id="i0Eyt-JpahuMwAbmDLZm-34"><g><path d="M 51 10 L 18.41 21.47" fill="none" stroke="#000000" stroke-miterlimit="10" pointer-events="stroke" style="stroke: rgb(0, 0, 0);"/></g></g><g data-cell-id="i0Eyt-JpahuMwAbmDLZm-35"><g><path d="M 1 10 L 38.52 21.84" fill="none" stroke="#000000" stroke-miterlimit="10" pointer-events="stroke" style="stroke: rgb(0, 0, 0);"/></g></g><g data-cell-id="i0Eyt-JpahuMwAbmDLZm-36"><g><path d="M 1 0 L 1 10" fill="none" stroke="#000000" stroke-miterlimit="10" pointer-events="stroke" style="stroke: rgb(0, 0, 0);"/></g></g><g data-cell-id="i0Eyt-JpahuMwAbmDLZm-37"><g><path d="M 51 10 L 51 0" fill="none" stroke="#000000" stroke-miterlimit="10" pointer-events="stroke" style="stroke: rgb(0, 0, 0);"/></g></g></g></g></g></svg>