<?xml version="1.0" encoding="UTF-8"?>
<!DOCTYPE svg PUBLIC "-//W3C//DTD SVG 1.1//EN" "http://www.w3.org/Graphics/SVG/1.1/DTD/svg11.dtd">
<svg xmlns="http://www.w3.org/2000/svg" style="background: #ffffff; background-color: #ffffff; color-scheme: light;" xmlns:xlink="http://www.w3.org/1999/xlink" version="1.1" width="46px" height="114px" viewBox="0 0 46 114"><defs/><rect fill="#ffffff" width="100%" height="100%" x="0" y="0" style="fill: rgb(255, 255, 255);"/><g><g data-cell-id="0"><g data-cell-id="1"><g data-cell-id="i0Eyt-JpahuMwAbmDLZm-10"><g transform="translate(0.5,0.5)"/><g data-cell-id="i0Eyt-JpahuMwAbmDLZm-4"><g transform="translate(0.5,0.5)"/><g data-cell-id="i0Eyt-JpahuMwAbmDLZm-2"><g transform="translate(0.5,0.5)"><path d="M 41.06 40 L 49.06 40 M 9.06 32.5 L 17.06 32.5 M 9.06 47.5 L 17.06 47.5" fill="none" stroke="#000000" stroke-miterlimit="10" transform="rotate(90,29.06,40)" pointer-events="all" style="stroke: rgb(0, 0, 0);"/><path d="M 17.06 25 L 29.06 25 C 35.69 25 41.06 31.72 41.06 40 C 41.06 48.28 35.69 55 29.06 55 L 17.06 55 Z" fill="#ffffff" stroke="#000000" stroke-miterlimit="10" transform="rotate(90,29.06,40)" pointer-events="all" style="fill: rgb(255, 255, 255); stroke: rgb(0, 0, 0);"/></g></g><g data-cell-id="i0Eyt-JpahuMwAbmDLZm-3"><g transform="translate(0.5,0.5)"><path d="M 37.06 82.82 L 49.06 82.82 M -10.94 73.29 L 2.86 73.29 M -10.94 92.35 L 2.86 92.35" fill="none" stroke="#000000" stroke-miterlimit="10" transform="rotate(90,19.06,82.82)" pointer-events="all" style="stroke: rgb(0, 0, 0);"/><path d="M 13.06 63.76 C 23.54 64.11 32.9 71.55 37.06 82.82 C 32.9 94.09 23.54 101.53 13.06 101.88 L -1.94 101.88 C 4.49 90.09 4.49 75.55 -1.94 63.76 Z" fill="#ffffff" stroke="#000000" stroke-miterlimit="10" transform="rotate(90,19.06,82.82)" pointer-events="all" style="fill: rgb(255, 255, 255); stroke: rgb(0, 0, 0);"/></g></g></g><g data-cell-id="i0Eyt-JpahuMwAbmDLZm-5"><g transform="translate(0.5,0.5)"><path d="M 9.53 52.82 L 10 20" fill="none" stroke="#000000" stroke-miterlimit="10" pointer-events="stroke" style="stroke: rgb(0, 0, 0);"/></g></g><g data-cell-id="i0Eyt-JpahuMwAbmDLZm-6"><g transform="translate(0.5,0.5)"><path d="M 0 20 L 21.56 20" fill="none" stroke="#000000" stroke-miterlimit="10" pointer-events="stroke" style="stroke: rgb(0, 0, 0);"/></g></g><g data-cell-id="i0Eyt-JpahuMwAbmDLZm-8"><g transform="translate(0.5,0.5)"><path d="M 0 20 L 0 0" fill="none" stroke="#000000" stroke-miterlimit="10" pointer-events="stroke" style="stroke: rgb(0, 0, 0);"/></g></g><g data-cell-id="i0Eyt-JpahuMwAbmDLZm-9"><g transform="translate(0.5,0.5)"><path d="M 36.56 20 L 37 0" fill="none" stroke="#000000" stroke-miterlimit="10" pointer-events="stroke" style="stroke: rgb(0, 0, 0);"/></g></g></g></g></g></g></svg>