<?xml version="1.0" encoding="UTF-8"?>
<!DOCTYPE svg PUBLIC "-//W3C//DTD SVG 1.1//EN" "http://www.w3.org/Graphics/SVG/1.1/DTD/svg11.dtd">
<svg xmlns="http://www.w3.org/2000/svg" style="background: #ffffff; background-color: #ffffff; color-scheme: light;" xmlns:xlink="http://www.w3.org/1999/xlink" version="1.1" width="58px" height="107px" viewBox="0 0 58 107"><defs/><rect fill="#ffffff" width="100%" height="100%" x="0" y="0" style="fill: rgb(255, 255, 255);"/><g><g data-cell-id="0"><g data-cell-id="1"><g data-cell-id="i0Eyt-JpahuMwAbmDLZm-28"><g><path d="M 26.5 65 L 15.5 52.65" fill="none" stroke="#000000" stroke-miterlimit="10" pointer-events="stroke" style="stroke: rgb(0, 0, 0);"/></g></g><g data-cell-id="i0Eyt-JpahuMwAbmDLZm-30"><g><path d="M 41.5 65 L 47.28 52.66" fill="none" stroke="#000000" stroke-miterlimit="10" pointer-events="stroke" style="stroke: rgb(0, 0, 0);"/></g></g><g data-cell-id="i0Eyt-JpahuMwAbmDLZm-35"><g><path d="M 14 10 L 42.28 14.38" fill="none" stroke="#000000" stroke-miterlimit="10" pointer-events="stroke" style="stroke: rgb(0, 0, 0);"/></g></g><g data-cell-id="i0Eyt-JpahuMwAbmDLZm-36"><g><path d="M 4 0 L 4 10" fill="none" stroke="#000000" stroke-miterlimit="10" pointer-events="stroke" style="stroke: rgb(0, 0, 0);"/></g></g><g data-cell-id="i0Eyt-JpahuMwAbmDLZm-37"><g><path d="M 52.28 14.38 L 54 0" fill="none" stroke="#000000" stroke-miterlimit="10" pointer-events="stroke" style="stroke: rgb(0, 0, 0);"/></g></g><g data-cell-id="i0Eyt-JpahuMwAbmDLZm-40"><g><path d="M 4 10 L 14 10" fill="none" stroke="#000000" stroke-miterlimit="10" pointer-events="stroke" style="stroke: rgb(0, 0, 0);"/></g></g><g data-cell-id="i0Eyt-JpahuMwAbmDLZm-42"><g><path d="M 58.76 33.52 L 66.42 33.52 M 28.14 28.52 L 35.8 28.52 M 28.14 38.52 L 35.8 38.52" fill="none" stroke="#000000" stroke-miterlimit="10" transform="rotate(90,47.28,33.52)" pointer-events="all" style="stroke: rgb(0, 0, 0);"/><path d="M 35.8 23.52 L 47.28 23.52 C 53.62 23.52 58.76 28 58.76 33.52 C 58.76 39.04 53.62 43.52 47.28 43.52 L 35.8 43.52 Z" fill="#ffffff" stroke="#000000" stroke-miterlimit="10" transform="rotate(90,47.28,33.52)" pointer-events="all" style="fill: rgb(255, 255, 255); stroke: rgb(0, 0, 0);"/><ellipse cx="60.2" cy="33.52" rx="1.4355" ry="1.4355" fill="#ffffff" stroke="#000000" transform="rotate(90,47.28,33.52)" pointer-events="all" style="fill: rgb(255, 255, 255); stroke: rgb(0, 0, 0);"/></g></g><g data-cell-id="i0Eyt-JpahuMwAbmDLZm-48"><g/></g><g data-cell-id="i0Eyt-JpahuMwAbmDLZm-43"><g><path d="M -5.25 31.91 L 3.05 31.91 M 27.94 31.91 L 36.24 31.91" fill="none" stroke="#000000" stroke-miterlimit="10" transform="rotate(90,15.5,31.91)" pointer-events="all" style="stroke: rgb(0, 0, 0);"/><path d="M 3.05 16.91 L 27.94 31.91 L 3.05 46.91 Z" fill="#ffffff" stroke="#000000" stroke-miterlimit="10" transform="rotate(90,15.5,31.91)" pointer-events="all" style="fill: rgb(255, 255, 255); stroke: rgb(0, 0, 0);"/></g></g><g data-cell-id="i0Eyt-JpahuMwAbmDLZm-47"><g><path d="M 46 85 L 54 85 M 14 77.5 L 23.2 77.5 M 14 92.5 L 23.2 92.5" fill="none" stroke="#000000" stroke-miterlimit="10" transform="rotate(90,34,85)" pointer-events="all" style="stroke: rgb(0, 0, 0);"/><path d="M 30 70 C 36.99 70.28 43.22 76.13 46 85 C 43.22 93.87 36.99 99.72 30 100 L 20 100 C 24.29 90.72 24.29 79.28 20 70 Z" fill="#ffffff" stroke="#000000" stroke-miterlimit="10" transform="rotate(90,34,85)" pointer-events="all" style="fill: rgb(255, 255, 255); stroke: rgb(0, 0, 0);"/></g></g></g></g></g></svg>