<?xml version="1.0" encoding="UTF-8"?>
<!DOCTYPE svg PUBLIC "-//W3C//DTD SVG 1.1//EN" "http://www.w3.org/Graphics/SVG/1.1/DTD/svg11.dtd">
<svg xmlns="http://www.w3.org/2000/svg" style="background: #ffffff; background-color: #ffffff; color-scheme: light;" xmlns:xlink="http://www.w3.org/1999/xlink" version="1.1" width="55px" height="111px" viewBox="0 0 55 111"><defs/><rect fill="#ffffff" width="100%" height="100%" x="0" y="0" style="fill: rgb(255, 255, 255);"/><g><g data-cell-id="0"><g data-cell-id="1"><g data-cell-id="H-527U26F7Mqa2QqVXOn-2"><g><path d="M 31 33.52 L 41 33.52 M -9 25.46 L 2.5 25.46 M -9 41.57 L 2.5 41.57" fill="none" stroke="#000000" stroke-miterlimit="10" transform="rotate(90,16,33.52)" pointer-events="all" style="stroke: rgb(0, 0, 0);"/><path d="M 11 17.41 C 19.73 17.71 27.53 23.99 31 33.52 C 27.53 43.05 19.73 49.33 11 49.63 L -1.5 49.63 C 3.86 39.66 3.86 27.38 -1.5 17.41 Z" fill="#ffffff" stroke="#000000" stroke-miterlimit="10" transform="rotate(90,16,33.52)" pointer-events="all" style="fill: rgb(255, 255, 255); stroke: rgb(0, 0, 0);"/><ellipse cx="32.88" cy="33.52" rx="1.875" ry="1.875" fill="#ffffff" stroke="#000000" transform="rotate(90,16,33.52)" pointer-events="all" style="fill: rgb(255, 255, 255); stroke: rgb(0, 0, 0);"/></g></g><g data-cell-id="H-527U26F7Mqa2QqVXOn-3"><g><path d="M 19.61 60 Q 19.61 60 16 58.52" fill="none" stroke="#000000" stroke-miterlimit="10" pointer-events="stroke" style="stroke: rgb(0, 0, 0);"/></g></g><g data-cell-id="H-527U26F7Mqa2QqVXOn-4"><g><path d="M 52.11 60 Q 52.11 60 34.61 60" fill="none" stroke="#000000" stroke-miterlimit="10" pointer-events="stroke" style="stroke: rgb(0, 0, 0);"/></g></g><g data-cell-id="H-527U26F7Mqa2QqVXOn-5"><g><path d="M 52.11 0 Q 52.11 0 52.11 60" fill="none" stroke="#000000" stroke-miterlimit="10" pointer-events="stroke" style="stroke: rgb(0, 0, 0);"/></g></g><g data-cell-id="H-527U26F7Mqa2QqVXOn-6"><g><path d="M 52.11 9 Q 52.11 9 24.06 8.52" fill="none" stroke="#000000" stroke-miterlimit="10" pointer-events="stroke" style="stroke: rgb(0, 0, 0);"/></g></g><g data-cell-id="H-527U26F7Mqa2QqVXOn-7"><g><path d="M 7.94 8.52 Q 7.94 8.52 8 0" fill="none" stroke="#000000" stroke-miterlimit="10" pointer-events="stroke" style="stroke: rgb(0, 0, 0);"/></g></g><g data-cell-id="H-527U26F7Mqa2QqVXOn-9"><g><path d="M 41 85 L 51 85 M 1 77.5 L 12.5 77.5 M 1 92.5 L 12.5 92.5" fill="none" stroke="#000000" stroke-miterlimit="10" transform="rotate(90,26,85)" pointer-events="all" style="stroke: rgb(0, 0, 0);"/><path d="M 21 70 C 29.73 70.28 37.53 76.13 41 85 C 37.53 93.87 29.73 99.72 21 100 L 8.5 100 C 13.86 90.72 13.86 79.28 8.5 70 Z" fill="#ffffff" stroke="#000000" stroke-miterlimit="10" transform="rotate(90,26,85)" pointer-events="all" style="fill: rgb(255, 255, 255); stroke: rgb(0, 0, 0);"/></g></g></g></g></g></svg>