<?xml version="1.0" encoding="UTF-8"?>
<!DOCTYPE svg PUBLIC "-//W3C//DTD SVG 1.1//EN" "http://www.w3.org/Graphics/SVG/1.1/DTD/svg11.dtd">
<svg xmlns="http://www.w3.org/2000/svg" style="background: #ffffff; background-color: #ffffff; color-scheme: light;" xmlns:xlink="http://www.w3.org/1999/xlink" version="1.1" width="43px" height="106px" viewBox="0 0 43 106"><defs/><rect fill="#ffffff" width="100%" height="100%" x="0" y="0" style="fill: rgb(255, 255, 255);"/><g><g data-cell-id="0"><g data-cell-id="1"><g data-cell-id="i0Eyt-JpahuMwAbmDLZm-15"><g><path d="M 34 0 L 34.45 11.39" fill="none" stroke="#000000" stroke-miterlimit="10" pointer-events="stroke" style="stroke: rgb(0, 0, 0);"/></g></g><g data-cell-id="i0Eyt-JpahuMwAbmDLZm-17"><g><path d="M 0 10 L 20.58 11.39" fill="none" stroke="#000000" stroke-miterlimit="10" pointer-events="stroke" style="stroke: rgb(0, 0, 0);"/></g></g><g data-cell-id="i0Eyt-JpahuMwAbmDLZm-19"><g><path d="M 0 50 L 10.55 48.19" fill="none" stroke="#000000" stroke-miterlimit="10" pointer-events="stroke" style="stroke: rgb(0, 0, 0);"/></g></g><g data-cell-id="i0Eyt-JpahuMwAbmDLZm-18"><g><path d="M 0 50 L 0 0" fill="none" stroke="#000000" stroke-miterlimit="10" pointer-events="stroke" style="stroke: rgb(0, 0, 0);"/></g></g><g data-cell-id="i0Eyt-JpahuMwAbmDLZm-12"><g><path d="M 35.97 76.37 L 47.24 76.37 M -9.12 67.86 L 2.15 67.86 M -9.12 84.88 L 2.15 84.88" fill="none" stroke="#000000" stroke-miterlimit="10" transform="rotate(90,19.06,76.37)" pointer-events="all" style="stroke: rgb(0, 0, 0);"/><path d="M 2.15 59.36 L 19.06 59.36 C 28.4 59.36 35.97 66.97 35.97 76.37 C 35.97 85.77 28.4 93.39 19.06 93.39 L 2.15 93.39 Z" fill="#ffffff" stroke="#000000" stroke-miterlimit="10" transform="rotate(90,19.06,76.37)" pointer-events="all" style="fill: rgb(255, 255, 255); stroke: rgb(0, 0, 0);"/></g></g><g data-cell-id="i0Eyt-JpahuMwAbmDLZm-13"><g><path d="M 41 33.87 L 50 33.87 M 5.03 26.93 L 15.37 26.93 M 5.03 40.81 L 15.37 40.81" fill="none" stroke="#000000" stroke-miterlimit="10" transform="rotate(90,27.51,33.87)" pointer-events="all" style="stroke: rgb(0, 0, 0);"/><path d="M 23.02 20 C 30.87 20.25 37.88 25.66 41 33.87 C 37.88 42.08 30.87 47.49 23.02 47.75 L 11.77 47.75 C 16.59 39.16 16.59 28.58 11.77 20 Z" fill="#ffffff" stroke="#000000" stroke-miterlimit="10" transform="rotate(90,27.51,33.87)" pointer-events="all" style="fill: rgb(255, 255, 255); stroke: rgb(0, 0, 0);"/></g></g></g></g></g></svg>