<?xml version="1.0" encoding="UTF-8"?>
<!DOCTYPE svg PUBLIC "-//W3C//DTD SVG 1.1//EN" "http://www.w3.org/Graphics/SVG/1.1/DTD/svg11.dtd">
<svg xmlns="http://www.w3.org/2000/svg" style="background: #ffffff; background-color: #ffffff; color-scheme: light;" xmlns:xlink="http://www.w3.org/1999/xlink" version="1.1" width="58px" height="113px" viewBox="0 0 58 113"><defs/><rect fill="#ffffff" width="100%" height="100%" x="0" y="0" style="fill: rgb(255, 255, 255);"/><g><g data-cell-id="0"><g data-cell-id="1"><g data-cell-id="i0Eyt-JpahuMwAbmDLZm-28"><g><path d="M 11 70 L 12.26 53.86" fill="none" stroke="#000000" stroke-miterlimit="10" pointer-events="stroke" style="stroke: rgb(0, 0, 0);"/></g></g><g data-cell-id="i0Eyt-JpahuMwAbmDLZm-29"><g><path d="M 11 70 L 21 70" fill="none" stroke="#000000" stroke-miterlimit="10" pointer-events="stroke" style="stroke: rgb(0, 0, 0);"/></g></g><g data-cell-id="i0Eyt-JpahuMwAbmDLZm-30"><g><path d="M 41 70 L 44.28 53.49" fill="none" stroke="#000000" stroke-miterlimit="10" pointer-events="stroke" style="stroke: rgb(0, 0, 0);"/></g></g><g data-cell-id="i0Eyt-JpahuMwAbmDLZm-31"><g><path d="M 34.89 69.9 L 41 70" fill="none" stroke="#000000" stroke-miterlimit="10" pointer-events="stroke" style="stroke: rgb(0, 0, 0);"/></g></g><g data-cell-id="i0Eyt-JpahuMwAbmDLZm-33"><g><path d="M 51 10 L 50.05 21.84" fill="none" stroke="#000000" stroke-miterlimit="10" pointer-events="stroke" style="stroke: rgb(0, 0, 0);"/></g></g><g data-cell-id="i0Eyt-JpahuMwAbmDLZm-35"><g><path d="M 11 10 L 38.52 21.84" fill="none" stroke="#000000" stroke-miterlimit="10" pointer-events="stroke" style="stroke: rgb(0, 0, 0);"/></g></g><g data-cell-id="i0Eyt-JpahuMwAbmDLZm-36"><g><path d="M 1 0 L 1 10" fill="none" stroke="#000000" stroke-miterlimit="10" pointer-events="stroke" style="stroke: rgb(0, 0, 0);"/></g></g><g data-cell-id="i0Eyt-JpahuMwAbmDLZm-37"><g><path d="M 51 10 L 51 0" fill="none" stroke="#000000" stroke-miterlimit="10" pointer-events="stroke" style="stroke: rgb(0, 0, 0);"/></g></g><g data-cell-id="i0Eyt-JpahuMwAbmDLZm-24"><g><path d="M 53.78 37.66 L 60.11 37.66 M 28.46 31.9 L 35.74 31.9 M 28.46 43.43 L 35.74 43.43" fill="none" stroke="#000000" stroke-miterlimit="10" transform="rotate(90,44.28,37.66)" pointer-events="all" style="stroke: rgb(0, 0, 0);"/><path d="M 41.12 26.14 C 46.65 26.35 51.58 30.85 53.78 37.66 C 51.58 44.48 46.65 48.98 41.12 49.19 L 33.21 49.19 C 36.6 42.06 36.6 33.27 33.21 26.14 Z" fill="#ffffff" stroke="#000000" stroke-miterlimit="10" transform="rotate(90,44.28,37.66)" pointer-events="all" style="fill: rgb(255, 255, 255); stroke: rgb(0, 0, 0);"/></g></g><g data-cell-id="i0Eyt-JpahuMwAbmDLZm-38"><g><path d="M 40.36 91.17 L 48.65 91.17 M 7.21 83.67 L 15.5 83.67 M 7.21 98.67 L 15.5 98.67" fill="none" stroke="#000000" stroke-miterlimit="10" transform="rotate(90,27.93,91.17)" pointer-events="all" style="stroke: rgb(0, 0, 0);"/><path d="M 15.5 76.17 L 27.93 76.17 C 34.8 76.17 40.36 82.89 40.36 91.17 C 40.36 99.45 34.8 106.17 27.93 106.17 L 15.5 106.17 Z" fill="#ffffff" stroke="#000000" stroke-miterlimit="10" transform="rotate(90,27.93,91.17)" pointer-events="all" style="fill: rgb(255, 255, 255); stroke: rgb(0, 0, 0);"/></g></g><g data-cell-id="i0Eyt-JpahuMwAbmDLZm-39"><g><path d="M -7.51 34.19 L 0.49 34.19" fill="#ffffff" stroke="#000000" stroke-miterlimit="10" transform="rotate(90,12.49,34.19)" pointer-events="all" style="fill: rgb(255, 255, 255); stroke: rgb(0, 0, 0);"/><path d="M 26.09 34.19 L 32.49 34.19" fill="#ffffff" stroke="#000000" stroke-miterlimit="10" transform="rotate(90,12.49,34.19)" pointer-events="all" style="fill: rgb(255, 255, 255); stroke: rgb(0, 0, 0);"/><path d="M 23.29 34.19 L -0.71 46.89 L -0.71 21.48 Z" fill="#ffffff" stroke="#000000" stroke-miterlimit="10" transform="rotate(90,12.49,34.19)" pointer-events="all" style="fill: rgb(255, 255, 255); stroke: rgb(0, 0, 0);"/><ellipse cx="24.89" cy="34.19" rx="1.6" ry="1.694" fill="#ffffff" stroke="#000000" transform="rotate(90,12.49,34.19)" pointer-events="all" style="fill: rgb(255, 255, 255); stroke: rgb(0, 0, 0);"/></g></g><g data-cell-id="i0Eyt-JpahuMwAbmDLZm-40"><g><path d="M 1 10 L 11 10" fill="none" stroke="#000000" stroke-miterlimit="10" pointer-events="stroke" style="stroke: rgb(0, 0, 0);"/></g></g><g data-cell-id="i0Eyt-JpahuMwAbmDLZm-41"><g><path d="M 12.49 14.19 L 11 10" fill="none" stroke="#000000" stroke-miterlimit="10" pointer-events="stroke" style="stroke: rgb(0, 0, 0);"/></g></g></g></g></g></svg>