<?xml version="1.0" encoding="UTF-8"?>
<!DOCTYPE svg PUBLIC "-//W3C//DTD SVG 1.1//EN" "http://www.w3.org/Graphics/SVG/1.1/DTD/svg11.dtd">
<svg xmlns="http://www.w3.org/2000/svg" style="background: #ffffff; background-color: #ffffff; color-scheme: light;" xmlns:xlink="http://www.w3.org/1999/xlink" version="1.1" width="72px" height="106px" viewBox="0 0 72 106"><defs/><rect fill="#ffffff" width="100%" height="100%" x="0" y="0" style="fill: rgb(255, 255, 255);"/><g><g data-cell-id="0"><g data-cell-id="1"><g data-cell-id="H-527U26F7Mqa2QqVXOn-13"><g transform="translate(0.5,0.5)"><path d="M 14.88 62.34 Q 14.88 62.34 26.5 65" fill="none" stroke="#000000" stroke-miterlimit="10" pointer-events="stroke" style="stroke: rgb(0, 0, 0);"/></g></g><g data-cell-id="H-527U26F7Mqa2QqVXOn-14"><g transform="translate(0.5,0.5)"><path d="M 55.76 61.45 Q 55.76 61.45 40.99 65" fill="none" stroke="#000000" stroke-miterlimit="10" pointer-events="stroke" style="stroke: rgb(0, 0, 0);"/></g></g><g data-cell-id="H-527U26F7Mqa2QqVXOn-15"><g transform="translate(0.5,0.5)"><path d="M 4 0 Q 4 0 7.67 20.58" fill="none" stroke="#000000" stroke-miterlimit="10" pointer-events="stroke" style="stroke: rgb(0, 0, 0);"/></g></g><g data-cell-id="H-527U26F7Mqa2QqVXOn-16"><g transform="translate(0.5,0.5)"><path d="M 63.25 21.45 Q 63.25 21.45 64 0" fill="none" stroke="#000000" stroke-miterlimit="10" pointer-events="stroke" style="stroke: rgb(0, 0, 0);"/></g></g><g data-cell-id="H-527U26F7Mqa2QqVXOn-18"><g transform="translate(0.5,0.5)"><path d="M 4 10 Q 4 10 48.26 21.45" fill="none" stroke="#000000" stroke-miterlimit="10" pointer-events="stroke" style="stroke: rgb(0, 0, 0);"/></g></g><g data-cell-id="H-527U26F7Mqa2QqVXOn-19"><g transform="translate(0.5,0.5)"><path d="M 22.53 20.88 Q 22.53 20.88 64 10" fill="none" stroke="#000000" stroke-miterlimit="10" pointer-events="stroke" style="stroke: rgb(0, 0, 0);"/></g></g><g data-cell-id="H-527U26F7Mqa2QqVXOn-21"><g transform="translate(0.5,0.5)"><path d="M 46 85 L 54 85 M 14 77.5 L 23.2 77.5 M 14 92.5 L 23.2 92.5" fill="none" stroke="#000000" stroke-miterlimit="10" transform="rotate(90,34,85)" pointer-events="all" style="stroke: rgb(0, 0, 0);"/><path d="M 30 70 C 36.99 70.28 43.22 76.13 46 85 C 43.22 93.87 36.99 99.72 30 100 L 20 100 C 24.29 90.72 24.29 79.28 20 70 Z" fill="#ffffff" stroke="#000000" stroke-miterlimit="10" transform="rotate(90,34,85)" pointer-events="all" style="fill: rgb(255, 255, 255); stroke: rgb(0, 0, 0);"/></g></g><g data-cell-id="H-527U26F7Mqa2QqVXOn-22"><g transform="translate(0.5,0.5)"><path d="M 67.76 41.46 L 75.76 41.46 M 35.76 33.96 L 43.76 33.96 M 35.76 48.96 L 43.76 48.96" fill="none" stroke="#000000" stroke-miterlimit="10" transform="rotate(90,55.76,41.46)" pointer-events="all" style="stroke: rgb(0, 0, 0);"/><path d="M 43.76 26.46 L 55.76 26.46 C 62.39 26.46 67.76 33.18 67.76 41.46 C 67.76 49.74 62.39 56.46 55.76 56.46 L 43.76 56.46 Z" fill="#ffffff" stroke="#000000" stroke-miterlimit="10" transform="rotate(90,55.76,41.46)" pointer-events="all" style="fill: rgb(255, 255, 255); stroke: rgb(0, 0, 0);"/></g></g><g data-cell-id="H-527U26F7Mqa2QqVXOn-23"><g transform="translate(0.5,0.5)"><path d="M 27.41 41.46 L 35.76 41.46 M -6 34.25 L 3.6 34.25 M -6 48.68 L 3.6 48.68" fill="none" stroke="#000000" stroke-miterlimit="10" transform="rotate(90,14.88,41.46)" pointer-events="all" style="stroke: rgb(0, 0, 0);"/><path d="M -1.82 27.04 C 2.65 35.97 2.65 46.96 -1.82 55.89" fill="none" stroke="#000000" stroke-miterlimit="10" transform="rotate(90,14.88,41.46)" pointer-events="all" style="stroke: rgb(0, 0, 0);"/><path d="M 10.7 27.04 C 18 27.31 24.51 32.93 27.41 41.46 C 24.51 50 18 55.62 10.7 55.89 L 0.26 55.89 C 4.74 46.96 4.74 35.97 0.26 27.04 Z" fill="#ffffff" stroke="#000000" stroke-miterlimit="10" transform="rotate(90,14.88,41.46)" pointer-events="all" style="fill: rgb(255, 255, 255); stroke: rgb(0, 0, 0);"/><ellipse cx="28.97" cy="41.46" rx="1.5659999999999998" ry="1.5659999999999998" fill="#ffffff" stroke="#000000" transform="rotate(90,14.88,41.46)" pointer-events="all" style="fill: rgb(255, 255, 255); stroke: rgb(0, 0, 0);"/></g></g></g></g></g></svg>