<?xml version="1.0" encoding="UTF-8"?>
<!DOCTYPE svg PUBLIC "-//W3C//DTD SVG 1.1//EN" "http://www.w3.org/Graphics/SVG/1.1/DTD/svg11.dtd">
<svg xmlns="http://www.w3.org/2000/svg" style="background: #ffffff; background-color: #ffffff; color-scheme: light;" xmlns:xlink="http://www.w3.org/1999/xlink" version="1.1" width="73px" height="111px" viewBox="0 0 73 111"><defs/><rect fill="#ffffff" width="100%" height="100%" x="0" y="0" style="fill: rgb(255, 255, 255);"/><g><g data-cell-id="0"><g data-cell-id="1"><g data-cell-id="H-527U26F7Mqa2QqVXOn-10"><g transform="translate(0.5,0.5)"><path d="M 48.24 87.5 L 57.24 87.5 M 12.24 81.25 L 21.24 81.25 M 12.24 93.75 L 21.24 93.75" fill="none" stroke="#000000" stroke-miterlimit="10" transform="rotate(90,34.74,87.5)" pointer-events="all" style="stroke: rgb(0, 0, 0);"/><path d="M 21.24 75 L 34.74 75 C 42.2 75 48.24 80.6 48.24 87.5 C 48.24 94.4 42.2 100 34.74 100 L 21.24 100 Z" fill="#ffffff" stroke="#000000" stroke-miterlimit="10" transform="rotate(90,34.74,87.5)" pointer-events="all" style="fill: rgb(255, 255, 255); stroke: rgb(0, 0, 0);"/></g></g><g data-cell-id="H-527U26F7Mqa2QqVXOn-11"><g transform="translate(0.5,0.5)"><path d="M 67.76 41.45 L 75.76 41.45 M 35.76 33.95 L 44.96 33.95 M 35.76 48.94 L 44.96 48.94" fill="none" stroke="#000000" stroke-miterlimit="10" transform="rotate(90,55.76,41.45)" pointer-events="all" style="stroke: rgb(0, 0, 0);"/><path d="M 51.76 26.46 C 58.75 26.74 64.98 32.58 67.76 41.45 C 64.98 50.32 58.75 56.16 51.76 56.44 L 41.76 56.44 C 46.05 47.16 46.05 35.74 41.76 26.46 Z" fill="#ffffff" stroke="#000000" stroke-miterlimit="10" transform="rotate(90,55.76,41.45)" pointer-events="all" style="fill: rgb(255, 255, 255); stroke: rgb(0, 0, 0);"/></g></g><g data-cell-id="H-527U26F7Mqa2QqVXOn-12"><g transform="translate(0.5,0.5)"><path d="M 27.41 41.76 L 35.76 41.76 M -6 34.11 L 3.6 34.11 M -6 49.41 L 3.6 49.41" fill="none" stroke="#000000" stroke-miterlimit="10" transform="rotate(90,14.88,41.76)" pointer-events="all" style="stroke: rgb(0, 0, 0);"/><path d="M -1.82 26.46 C 2.65 35.93 2.65 47.59 -1.82 57.06" fill="none" stroke="#000000" stroke-miterlimit="10" transform="rotate(90,14.88,41.76)" pointer-events="all" style="stroke: rgb(0, 0, 0);"/><path d="M 10.7 26.46 C 18 26.74 24.51 32.71 27.41 41.76 C 24.51 50.81 18 56.78 10.7 57.06 L 0.26 57.06 C 4.74 47.59 4.74 35.93 0.26 26.46 Z" fill="#ffffff" stroke="#000000" stroke-miterlimit="10" transform="rotate(90,14.88,41.76)" pointer-events="all" style="fill: rgb(255, 255, 255); stroke: rgb(0, 0, 0);"/></g></g><g data-cell-id="H-527U26F7Mqa2QqVXOn-13"><g transform="translate(0.5,0.5)"><path d="M 14.88 62.64 Q 14.88 62.64 28.49 65" fill="none" stroke="#000000" stroke-miterlimit="10" pointer-events="stroke" style="stroke: rgb(0, 0, 0);"/></g></g><g data-cell-id="H-527U26F7Mqa2QqVXOn-14"><g transform="translate(0.5,0.5)"><path d="M 55.76 61.45 Q 55.76 61.45 40.99 65" fill="none" stroke="#000000" stroke-miterlimit="10" pointer-events="stroke" style="stroke: rgb(0, 0, 0);"/></g></g><g data-cell-id="H-527U26F7Mqa2QqVXOn-15"><g transform="translate(0.5,0.5)"><path d="M 4 0 Q 4 0 7.23 20.88" fill="none" stroke="#000000" stroke-miterlimit="10" pointer-events="stroke" style="stroke: rgb(0, 0, 0);"/></g></g><g data-cell-id="H-527U26F7Mqa2QqVXOn-16"><g transform="translate(0.5,0.5)"><path d="M 63.25 21.45 Q 63.25 21.45 64 0" fill="none" stroke="#000000" stroke-miterlimit="10" pointer-events="stroke" style="stroke: rgb(0, 0, 0);"/></g></g><g data-cell-id="H-527U26F7Mqa2QqVXOn-18"><g transform="translate(0.5,0.5)"><path d="M 4 10 Q 4 10 48.26 21.45" fill="none" stroke="#000000" stroke-miterlimit="10" pointer-events="stroke" style="stroke: rgb(0, 0, 0);"/></g></g><g data-cell-id="H-527U26F7Mqa2QqVXOn-19"><g transform="translate(0.5,0.5)"><path d="M 22.53 20.88 Q 22.53 20.88 64 10" fill="none" stroke="#000000" stroke-miterlimit="10" pointer-events="stroke" style="stroke: rgb(0, 0, 0);"/></g></g></g></g></g></svg>