<?xml version="1.0" encoding="UTF-8"?>
<!DOCTYPE svg PUBLIC "-//W3C//DTD SVG 1.1//EN" "http://www.w3.org/Graphics/SVG/1.1/DTD/svg11.dtd">
<svg xmlns="http://www.w3.org/2000/svg" style="background: #ffffff; background-color: #ffffff; color-scheme: light;" xmlns:xlink="http://www.w3.org/1999/xlink" version="1.1" width="128px" height="111px" viewBox="0 0 128 111"><defs/><rect fill="#ffffff" width="100%" height="100%" x="0" y="0" style="fill: rgb(255, 255, 255);"/><g><g data-cell-id="0"><g data-cell-id="1"><g data-cell-id="aBIJvxdQVkdbdgmFZ_Es-4"><g transform="translate(0.5,0.5)"><path d="M 76 10 Q 76 10 76 0" fill="none" stroke="#000000" stroke-miterlimit="10" pointer-events="stroke" style="stroke: rgb(0, 0, 0);"/></g></g><g data-cell-id="aBIJvxdQVkdbdgmFZ_Es-5"><g transform="translate(0.5,0.5)"><path d="M 126 0 Q 126 0 126 10" fill="none" stroke="#000000" stroke-miterlimit="10" pointer-events="stroke" style="stroke: rgb(0, 0, 0);"/></g></g><g data-cell-id="AZdDgHaiwRHL2_zeWa7p-11"><g transform="translate(0.5,0.5)"><path d="M 18 10 Q 18 10 16 0" fill="none" stroke="#000000" stroke-miterlimit="10" pointer-events="stroke" style="stroke: rgb(0, 0, 0);"/></g></g><g data-cell-id="AZdDgHaiwRHL2_zeWa7p-17"><g transform="translate(0.5,0.5)"><path d="M -2 30 L 6 30" fill="#ffffff" stroke="#000000" stroke-miterlimit="10" transform="rotate(90,18,30)" pointer-events="all" style="fill: rgb(255, 255, 255); stroke: rgb(0, 0, 0);"/><path d="M 31.6 30 L 38 30" fill="#ffffff" stroke="#000000" stroke-miterlimit="10" transform="rotate(90,18,30)" pointer-events="all" style="fill: rgb(255, 255, 255); stroke: rgb(0, 0, 0);"/><path d="M 28.8 30 L 4.8 48 L 4.8 12 Z" fill="#ffffff" stroke="#000000" stroke-miterlimit="10" transform="rotate(90,18,30)" pointer-events="all" style="fill: rgb(255, 255, 255); stroke: rgb(0, 0, 0);"/><ellipse cx="30.4" cy="30" rx="1.6" ry="2.4" fill="#ffffff" stroke="#000000" transform="rotate(90,18,30)" pointer-events="all" style="fill: rgb(255, 255, 255); stroke: rgb(0, 0, 0);"/></g></g><g data-cell-id="AZdDgHaiwRHL2_zeWa7p-18"><g transform="translate(0.5,0.5)"><path d="M 91 85 L 101 85 M 51 75 L 62.5 75 M 51 95 L 62.5 95" fill="none" stroke="#000000" stroke-miterlimit="10" transform="rotate(90,76,85)" pointer-events="all" style="stroke: rgb(0, 0, 0);"/><path d="M 71 65 C 79.73 65.37 87.53 73.17 91 85 C 87.53 96.83 79.73 104.63 71 105 L 58.5 105 C 63.86 92.62 63.86 77.38 58.5 65 Z" fill="#ffffff" stroke="#000000" stroke-miterlimit="10" transform="rotate(90,76,85)" pointer-events="all" style="fill: rgb(255, 255, 255); stroke: rgb(0, 0, 0);"/></g></g><g data-cell-id="AZdDgHaiwRHL2_zeWa7p-19"><g transform="translate(0.5,0.5)"><path d="M 113 30 L 121 30 M 81 22.5 L 89 22.5 M 81 37.5 L 89 37.5" fill="none" stroke="#000000" stroke-miterlimit="10" transform="rotate(90,101,30)" pointer-events="all" style="stroke: rgb(0, 0, 0);"/><path d="M 89 15 L 101 15 C 107.63 15 113 21.72 113 30 C 113 38.28 107.63 45 101 45 L 89 45 Z" fill="#ffffff" stroke="#000000" stroke-miterlimit="10" transform="rotate(90,101,30)" pointer-events="all" style="fill: rgb(255, 255, 255); stroke: rgb(0, 0, 0);"/></g></g><g data-cell-id="AZdDgHaiwRHL2_zeWa7p-20"><g transform="translate(0.5,0.5)"><path d="M 108.5 10 Q 108.5 10 126 10" fill="none" stroke="#000000" stroke-miterlimit="10" pointer-events="stroke" style="stroke: rgb(0, 0, 0);"/></g></g><g data-cell-id="AZdDgHaiwRHL2_zeWa7p-21"><g transform="translate(0.5,0.5)"><path d="M 76 10 Q 76 10 93.5 10" fill="none" stroke="#000000" stroke-miterlimit="10" pointer-events="stroke" style="stroke: rgb(0, 0, 0);"/></g></g><g data-cell-id="AZdDgHaiwRHL2_zeWa7p-22"><g transform="translate(0.5,0.5)"><path d="M 18 50 Q 18 50 66 50" fill="none" stroke="#000000" stroke-miterlimit="10" pointer-events="stroke" style="stroke: rgb(0, 0, 0);"/></g></g><g data-cell-id="AZdDgHaiwRHL2_zeWa7p-23"><g transform="translate(0.5,0.5)"><path d="M 86 50 Q 86 50 101 50" fill="none" stroke="#000000" stroke-miterlimit="10" pointer-events="stroke" style="stroke: rgb(0, 0, 0);"/></g></g><g data-cell-id="AZdDgHaiwRHL2_zeWa7p-24"><g transform="translate(0.5,0.5)"><path d="M 66 50 Q 66 50 66 60" fill="none" stroke="#000000" stroke-miterlimit="10" pointer-events="stroke" style="stroke: rgb(0, 0, 0);"/></g></g><g data-cell-id="AZdDgHaiwRHL2_zeWa7p-25"><g transform="translate(0.5,0.5)"><path d="M 86 60 Q 86 60 86 50" fill="none" stroke="#000000" stroke-miterlimit="10" pointer-events="stroke" style="stroke: rgb(0, 0, 0);"/></g></g></g></g></g></svg>