<?xml version="1.0" encoding="UTF-8"?>
<!DOCTYPE svg PUBLIC "-//W3C//DTD SVG 1.1//EN" "http://www.w3.org/Graphics/SVG/1.1/DTD/svg11.dtd">
<svg xmlns="http://www.w3.org/2000/svg" style="background: #ffffff; background-color: #ffffff; color-scheme: light;" xmlns:xlink="http://www.w3.org/1999/xlink" version="1.1" width="51px" height="119px" viewBox="0 0 51 119"><defs/><rect fill="#ffffff" width="100%" height="100%" x="0" y="0" style="fill: rgb(255, 255, 255);"/><g><g data-cell-id="0"><g data-cell-id="1"><g data-cell-id="Rxoadc6pyPcFEL9LNfed-28"><g transform="translate(0.5,0.5)"><path d="M -10.8 24.65 L -0.8 24.65" fill="#ffffff" stroke="#000000" stroke-miterlimit="10" transform="rotate(90,14.2,24.65)" pointer-events="all" style="fill: rgb(255, 255, 255); stroke: rgb(0, 0, 0);"/><path d="M 31.2 24.65 L 39.2 24.65" fill="#ffffff" stroke="#000000" stroke-miterlimit="10" transform="rotate(90,14.2,24.65)" pointer-events="all" style="fill: rgb(255, 255, 255); stroke: rgb(0, 0, 0);"/><path d="M 27.7 24.65 L -2.3 38.4 L -2.3 10.9 Z" fill="#ffffff" stroke="#000000" stroke-miterlimit="10" transform="rotate(90,14.2,24.65)" pointer-events="all" style="fill: rgb(255, 255, 255); stroke: rgb(0, 0, 0);"/><ellipse cx="29.7" cy="24.65" rx="2" ry="1.8333333333333333" fill="#ffffff" stroke="#000000" transform="rotate(90,14.2,24.65)" pointer-events="all" style="fill: rgb(255, 255, 255); stroke: rgb(0, 0, 0);"/></g></g><g data-cell-id="Rxoadc6pyPcFEL9LNfed-29"><g transform="translate(0.5,0.5)"><path d="M 44 2 Q 44 2 44 42" fill="none" stroke="#000000" stroke-miterlimit="10" pointer-events="stroke" style="stroke: rgb(0, 0, 0);"/></g></g><g data-cell-id="Rxoadc6pyPcFEL9LNfed-30"><g transform="translate(0.5,0.5)"><path d="M 39.82 70.44 Q 39.82 70.44 45.62 71.05" fill="none" stroke="#000000" stroke-miterlimit="10" pointer-events="stroke" style="stroke: rgb(0, 0, 0);"/></g></g><g data-cell-id="Rxoadc6pyPcFEL9LNfed-31"><g transform="translate(0.5,0.5)"><path d="M 9.52 63.4 Q 9.52 63.4 18.88 70.44" fill="none" stroke="#000000" stroke-miterlimit="10" pointer-events="stroke" style="stroke: rgb(0, 0, 0);"/></g></g><g data-cell-id="Rxoadc6pyPcFEL9LNfed-32"><g transform="translate(0.5,0.5)"><path d="M 50.58 82.24 L 64.72 82.24 M -6 72.12 L 10.27 72.12 M -6 92.36 L 10.27 92.36" fill="none" stroke="#000000" stroke-miterlimit="10" transform="rotate(90,29.36,82.24)" pointer-events="all" style="stroke: rgb(0, 0, 0);"/><path d="M 22.29 62 C 34.64 62.38 45.67 70.27 50.58 82.24 C 45.67 94.21 34.64 102.1 22.29 102.48 L 4.61 102.48 C 12.19 89.96 12.19 74.52 4.61 62 Z" fill="#ffffff" stroke="#000000" stroke-miterlimit="10" transform="rotate(90,29.36,82.24)" pointer-events="all" style="fill: rgb(255, 255, 255); stroke: rgb(0, 0, 0);"/></g></g><g data-cell-id="Rxoadc6pyPcFEL9LNfed-33"><g transform="translate(0.5,0.5)"><path d="M 14.2 49.65 Q 14.2 49.65 19.24 46.88" fill="none" stroke="#000000" stroke-miterlimit="10" pointer-events="stroke" style="stroke: rgb(0, 0, 0);"/></g></g><g data-cell-id="Rxoadc6pyPcFEL9LNfed-34"><g transform="translate(0.5,0.5)"><path d="M 39.48 46.88 Q 39.48 46.88 44 42" fill="none" stroke="#000000" stroke-miterlimit="10" pointer-events="stroke" style="stroke: rgb(0, 0, 0);"/></g></g></g></g></g></svg>