<?xml version="1.0" encoding="UTF-8"?>
<!DOCTYPE svg PUBLIC "-//W3C//DTD SVG 1.1//EN" "http://www.w3.org/Graphics/SVG/1.1/DTD/svg11.dtd">
<svg xmlns="http://www.w3.org/2000/svg" style="background: #ffffff; background-color: #ffffff; color-scheme: light;" xmlns:xlink="http://www.w3.org/1999/xlink" version="1.1" width="55px" height="119px" viewBox="0 0 55 119"><defs/><rect fill="#ffffff" width="100%" height="100%" x="0" y="0" style="fill: rgb(255, 255, 255);"/><g><g data-cell-id="0"><g data-cell-id="1"><g data-cell-id="Rxoadc6pyPcFEL9LNfed-19"><g transform="translate(0.5,0.5)"><path d="M 53.24 82.94 L 66.81 82.94 M -1 72.47 L 12.56 72.47 M -1 93.41 L 12.56 93.41" fill="none" stroke="#000000" stroke-miterlimit="10" transform="rotate(90,32.9,82.94)" pointer-events="all" style="stroke: rgb(0, 0, 0);"/><path d="M 12.56 62 L 32.9 62 C 44.14 62 53.24 71.38 53.24 82.94 C 53.24 94.5 44.14 103.88 32.9 103.88 L 12.56 103.88 Z" fill="#ffffff" stroke="#000000" stroke-miterlimit="10" transform="rotate(90,32.9,82.94)" pointer-events="all" style="fill: rgb(255, 255, 255); stroke: rgb(0, 0, 0);"/></g></g><g data-cell-id="Rxoadc6pyPcFEL9LNfed-20"><g transform="translate(0.5,0.5)"><path d="M -11 24.65 L -1 24.65" fill="#ffffff" stroke="#000000" stroke-miterlimit="10" transform="rotate(90,14,24.65)" pointer-events="all" style="fill: rgb(255, 255, 255); stroke: rgb(0, 0, 0);"/><path d="M 31 24.65 L 39 24.65" fill="#ffffff" stroke="#000000" stroke-miterlimit="10" transform="rotate(90,14,24.65)" pointer-events="all" style="fill: rgb(255, 255, 255); stroke: rgb(0, 0, 0);"/><path d="M 27.5 24.65 L -2.5 38.4 L -2.5 10.9 Z" fill="#ffffff" stroke="#000000" stroke-miterlimit="10" transform="rotate(90,14,24.65)" pointer-events="all" style="fill: rgb(255, 255, 255); stroke: rgb(0, 0, 0);"/><ellipse cx="29.5" cy="24.65" rx="2" ry="1.8333333333333333" fill="#ffffff" stroke="#000000" transform="rotate(90,14,24.65)" pointer-events="all" style="fill: rgb(255, 255, 255); stroke: rgb(0, 0, 0);"/></g></g><g data-cell-id="Rxoadc6pyPcFEL9LNfed-21"><g transform="translate(0.5,0.5)"><path d="M 48.99 0.62 Q 48.99 0.62 48.99 41.64" fill="none" stroke="#000000" stroke-miterlimit="10" pointer-events="stroke" style="stroke: rgb(0, 0, 0);"/></g></g><g data-cell-id="Rxoadc6pyPcFEL9LNfed-22"><g transform="translate(0.5,0.5)"><path d="M 22.43 49.04 Q 22.43 49.04 14 49.65" fill="none" stroke="#000000" stroke-miterlimit="10" pointer-events="stroke" style="stroke: rgb(0, 0, 0);"/></g></g><g data-cell-id="Rxoadc6pyPcFEL9LNfed-23"><g transform="translate(0.5,0.5)"><path d="M 48.99 41.64 Q 48.99 41.64 43.37 49.04" fill="none" stroke="#000000" stroke-miterlimit="10" pointer-events="stroke" style="stroke: rgb(0, 0, 0);"/></g></g></g></g></g></svg>