<?xml version="1.0" encoding="UTF-8"?>
<!DOCTYPE svg PUBLIC "-//W3C//DTD SVG 1.1//EN" "http://www.w3.org/Graphics/SVG/1.1/DTD/svg11.dtd">
<svg xmlns="http://www.w3.org/2000/svg" style="background: #ffffff; background-color: #ffffff; color-scheme: light;" xmlns:xlink="http://www.w3.org/1999/xlink" version="1.1" width="112px" height="126px" viewBox="0 0 112 126"><defs/><rect fill="#ffffff" width="100%" height="100%" x="0" y="0" style="fill: rgb(255, 255, 255);"/><g><g data-cell-id="0"><g data-cell-id="1"><g data-cell-id="aBIJvxdQVkdbdgmFZ_Es-1"><g><path d="M 91.89 67.66 L 114.71 67.66 M 0.59 48.24 L 23.41 48.24 M 0.59 87.07 L 23.41 87.07" fill="none" stroke="#000000" stroke-miterlimit="10" transform="rotate(90,57.65,67.66)" pointer-events="all" style="stroke: rgb(0, 0, 0);"/><path d="M 23.41 28.83 L 57.65 28.83 C 76.56 28.83 91.89 46.21 91.89 67.66 C 91.89 89.1 76.56 106.48 57.65 106.48 L 23.41 106.48 Z" fill="#ffffff" stroke="#000000" stroke-miterlimit="10" transform="rotate(90,57.65,67.66)" pointer-events="all" style="fill: rgb(255, 255, 255); stroke: rgb(0, 0, 0);"/></g></g><g data-cell-id="aBIJvxdQVkdbdgmFZ_Es-2"><g><path d="M 0 10 Q 0 10 38.24 10.6" fill="none" stroke="#000000" stroke-miterlimit="10" pointer-events="stroke" style="stroke: rgb(0, 0, 0);"/></g></g><g data-cell-id="aBIJvxdQVkdbdgmFZ_Es-3"><g><path d="M 0 10 Q 0 10 0 0" fill="none" stroke="#000000" stroke-miterlimit="10" pointer-events="stroke" style="stroke: rgb(0, 0, 0);"/></g></g><g data-cell-id="aBIJvxdQVkdbdgmFZ_Es-4"><g><path d="M 57.26 34.22 Q 57.26 34.22 57.41 0" fill="none" stroke="#000000" stroke-miterlimit="10" pointer-events="stroke" style="stroke: rgb(0, 0, 0);"/></g></g><g data-cell-id="aBIJvxdQVkdbdgmFZ_Es-5"><g><path d="M 110 0 Q 110 0 110 10" fill="none" stroke="#000000" stroke-miterlimit="10" pointer-events="stroke" style="stroke: rgb(0, 0, 0);"/></g></g><g data-cell-id="AZdDgHaiwRHL2_zeWa7p-2"><g><path d="M 110 10 Q 110 10 77.06 10.6" fill="none" stroke="#000000" stroke-miterlimit="10" pointer-events="stroke" style="stroke: rgb(0, 0, 0);"/></g></g></g></g></g></svg>