<?xml version="1.0" encoding="UTF-8"?>
<!DOCTYPE svg PUBLIC "-//W3C//DTD SVG 1.1//EN" "http://www.w3.org/Graphics/SVG/1.1/DTD/svg11.dtd">
<svg xmlns="http://www.w3.org/2000/svg" style="background: #ffffff; background-color: #ffffff; color-scheme: light;" xmlns:xlink="http://www.w3.org/1999/xlink" version="1.1" width="52px" height="119px" viewBox="0 0 52 119"><defs/><rect fill="#ffffff" width="100%" height="100%" x="0" y="0" style="fill: rgb(255, 255, 255);"/><g><g data-cell-id="0"><g data-cell-id="1"><g data-cell-id="Rxoadc6pyPcFEL9LNfed-4"><g transform="translate(0.5,0.5)"><path d="M 41.18 82.94 L 54.74 82.94 M -13.07 72.47 L 0.49 72.47 M -13.07 93.41 L 0.49 93.41" fill="none" stroke="#000000" stroke-miterlimit="10" transform="rotate(90,20.84,82.94)" pointer-events="all" style="stroke: rgb(0, 0, 0);"/><path d="M 0.49 62 L 20.84 62 C 32.07 62 41.18 71.38 41.18 82.94 C 41.18 94.5 32.07 103.88 20.84 103.88 L 0.49 103.88 Z" fill="#ffffff" stroke="#000000" stroke-miterlimit="10" transform="rotate(90,20.84,82.94)" pointer-events="all" style="fill: rgb(255, 255, 255); stroke: rgb(0, 0, 0);"/></g></g><g data-cell-id="Rxoadc6pyPcFEL9LNfed-5"><g transform="translate(0.5,0.5)"><path d="M 12.1 24.65 L 22.1 24.65" fill="#ffffff" stroke="#000000" stroke-miterlimit="10" transform="rotate(90,37.1,24.65)" pointer-events="all" style="fill: rgb(255, 255, 255); stroke: rgb(0, 0, 0);"/><path d="M 54.1 24.65 L 62.1 24.65" fill="#ffffff" stroke="#000000" stroke-miterlimit="10" transform="rotate(90,37.1,24.65)" pointer-events="all" style="fill: rgb(255, 255, 255); stroke: rgb(0, 0, 0);"/><path d="M 50.6 24.65 L 20.6 38.4 L 20.6 10.9 Z" fill="#ffffff" stroke="#000000" stroke-miterlimit="10" transform="rotate(90,37.1,24.65)" pointer-events="all" style="fill: rgb(255, 255, 255); stroke: rgb(0, 0, 0);"/><ellipse cx="52.6" cy="24.65" rx="2" ry="1.8333333333333333" fill="#ffffff" stroke="#000000" transform="rotate(90,37.1,24.65)" pointer-events="all" style="fill: rgb(255, 255, 255); stroke: rgb(0, 0, 0);"/></g></g><g data-cell-id="Rxoadc6pyPcFEL9LNfed-12"><g transform="translate(0.5,0.5)"><path d="M 1 0.98 Q 1 0.98 1 42" fill="none" stroke="#000000" stroke-miterlimit="10" pointer-events="stroke" style="stroke: rgb(0, 0, 0);"/></g></g><g data-cell-id="Rxoadc6pyPcFEL9LNfed-16"><g transform="translate(0.5,0.5)"><path d="M 31.31 49.03 Q 31.31 49.03 37.1 49.65" fill="none" stroke="#000000" stroke-miterlimit="10" pointer-events="stroke" style="stroke: rgb(0, 0, 0);"/></g></g><g data-cell-id="Rxoadc6pyPcFEL9LNfed-18"><g transform="translate(0.5,0.5)"><path d="M 1 42 Q 1 42 10.37 49.03" fill="none" stroke="#000000" stroke-miterlimit="10" pointer-events="stroke" style="stroke: rgb(0, 0, 0);"/></g></g></g></g></g></svg>