<?xml version="1.0" encoding="UTF-8"?>
<!DOCTYPE svg PUBLIC "-//W3C//DTD SVG 1.1//EN" "http://www.w3.org/Graphics/SVG/1.1/DTD/svg11.dtd">
<svg xmlns="http://www.w3.org/2000/svg" style="background: #ffffff; background-color: #ffffff; color-scheme: light;" xmlns:xlink="http://www.w3.org/1999/xlink" version="1.1" width="112px" height="126px" viewBox="0 0 112 126"><defs/><rect fill="#ffffff" width="100%" height="100%" x="0" y="0" style="fill: rgb(255, 255, 255);"/><g><g data-cell-id="0"><g data-cell-id="1"><g data-cell-id="aBIJvxdQVkdbdgmFZ_Es-3"><g transform="translate(0.5,0.5)"><path d="M 0 10 Q 0 10 0 0" fill="none" stroke="#000000" stroke-miterlimit="10" pointer-events="stroke" style="stroke: rgb(0, 0, 0);"/></g></g><g data-cell-id="aBIJvxdQVkdbdgmFZ_Es-4"><g transform="translate(0.5,0.5)"><path d="M 60 10 Q 60 10 60 0" fill="none" stroke="#000000" stroke-miterlimit="10" pointer-events="stroke" style="stroke: rgb(0, 0, 0);"/></g></g><g data-cell-id="aBIJvxdQVkdbdgmFZ_Es-5"><g transform="translate(0.5,0.5)"><path d="M 110 0 Q 110 0 110 10" fill="none" stroke="#000000" stroke-miterlimit="10" pointer-events="stroke" style="stroke: rgb(0, 0, 0);"/></g></g><g data-cell-id="AZdDgHaiwRHL2_zeWa7p-3"><g transform="translate(0.5,0.5)"><path d="M 104.71 35 L 114.71 35 M 64.71 24.85 L 74.71 24.85 M 64.71 45.14 L 74.71 45.14" fill="none" stroke="#000000" stroke-miterlimit="10" transform="rotate(90,89.71,35)" pointer-events="all" style="stroke: rgb(0, 0, 0);"/><path d="M 74.71 14.71 L 89.71 14.71 C 97.99 14.71 104.71 23.79 104.71 35 C 104.71 46.21 97.99 55.29 89.71 55.29 L 74.71 55.29 Z" fill="#ffffff" stroke="#000000" stroke-miterlimit="10" transform="rotate(90,89.71,35)" pointer-events="all" style="fill: rgb(255, 255, 255); stroke: rgb(0, 0, 0);"/></g></g><g data-cell-id="AZdDgHaiwRHL2_zeWa7p-4"><g transform="translate(0.5,0.5)"><path d="M 76.51 93.24 L 89.08 93.24 M 26.21 81.62 L 40.67 81.62 M 26.21 104.86 L 40.67 104.86" fill="none" stroke="#000000" stroke-miterlimit="10" transform="rotate(90,57.64,93.24)" pointer-events="all" style="stroke: rgb(0, 0, 0);"/><path d="M 51.36 70 C 62.34 70.43 72.14 79.49 76.51 93.24 C 72.14 106.99 62.34 116.05 51.36 116.48 L 35.64 116.48 C 42.38 102.1 42.38 84.38 35.64 70 Z" fill="#ffffff" stroke="#000000" stroke-miterlimit="10" transform="rotate(90,57.64,93.24)" pointer-events="all" style="fill: rgb(255, 255, 255); stroke: rgb(0, 0, 0);"/></g></g><g data-cell-id="AZdDgHaiwRHL2_zeWa7p-6"><g transform="translate(0.5,0.5)"><path d="M 69.27 61.81 Q 69.27 61.81 89.71 60" fill="none" stroke="#000000" stroke-miterlimit="10" pointer-events="stroke" style="stroke: rgb(0, 0, 0);"/></g></g><g data-cell-id="AZdDgHaiwRHL2_zeWa7p-8"><g transform="translate(0.5,0.5)"><path d="M 110 10 Q 110 10 99.86 10" fill="none" stroke="#000000" stroke-miterlimit="10" pointer-events="stroke" style="stroke: rgb(0, 0, 0);"/></g></g><g data-cell-id="AZdDgHaiwRHL2_zeWa7p-9"><g transform="translate(0.5,0.5)"><path d="M 60 10 Q 70 10 79.56 10" fill="none" stroke="#000000" stroke-miterlimit="10" pointer-events="stroke" style="stroke: rgb(0, 0, 0);"/></g></g><g data-cell-id="AZdDgHaiwRHL2_zeWa7p-10"><g transform="translate(0.5,0.5)"><path d="M 46.03 61.81 Q 46.03 61.81 0 60" fill="none" stroke="#000000" stroke-miterlimit="10" pointer-events="stroke" style="stroke: rgb(0, 0, 0);"/></g></g><g data-cell-id="AZdDgHaiwRHL2_zeWa7p-11"><g transform="translate(0.5,0.5)"><path d="M 0 60 Q 0 60 0 0" fill="none" stroke="#000000" stroke-miterlimit="10" pointer-events="stroke" style="stroke: rgb(0, 0, 0);"/></g></g></g></g></g></svg>