<?xml version="1.0" encoding="UTF-8"?>
<!DOCTYPE svg PUBLIC "-//W3C//DTD SVG 1.1//EN" "http://www.w3.org/Graphics/SVG/1.1/DTD/svg11.dtd">
<svg xmlns="http://www.w3.org/2000/svg" style="background: #ffffff; background-color: #ffffff; color-scheme: light;" xmlns:xlink="http://www.w3.org/1999/xlink" version="1.1" width="121px" height="125px" viewBox="0 0 121 125"><defs/><rect fill="#ffffff" width="100%" height="100%" x="0" y="0" style="fill: rgb(255, 255, 255);"/><g><g data-cell-id="0"><g data-cell-id="1"><g data-cell-id="aBIJvxdQVkdbdgmFZ_Es-3"><g transform="translate(0.5,0.5)"><path d="M 0 10 Q 0 10 0 0" fill="none" stroke="#000000" stroke-miterlimit="10" pointer-events="stroke" style="stroke: rgb(0, 0, 0);"/></g></g><g data-cell-id="aBIJvxdQVkdbdgmFZ_Es-4"><g transform="translate(0.5,0.5)"><path d="M 59.34 64.27 Q 59.34 64.27 60 0" fill="none" stroke="#000000" stroke-miterlimit="10" pointer-events="stroke" style="stroke: rgb(0, 0, 0);"/></g></g><g data-cell-id="aBIJvxdQVkdbdgmFZ_Es-5"><g transform="translate(0.5,0.5)"><path d="M 108 0 Q 108 0 108.24 10" fill="none" stroke="#000000" stroke-miterlimit="10" pointer-events="stroke" style="stroke: rgb(0, 0, 0);"/></g></g><g data-cell-id="AZdDgHaiwRHL2_zeWa7p-11"><g transform="translate(0.5,0.5)"><path d="M 0 40 Q 0 40 0 0" fill="none" stroke="#000000" stroke-miterlimit="10" pointer-events="stroke" style="stroke: rgb(0, 0, 0);"/></g></g><g data-cell-id="AZdDgHaiwRHL2_zeWa7p-12"><g transform="translate(0.5,0.5)"><path d="M 80.94 85 L 96.47 85 M 18.82 72.5 L 36.68 72.5 M 18.82 97.5 L 36.68 97.5" fill="none" stroke="#000000" stroke-miterlimit="10" transform="rotate(90,57.64,85)" pointer-events="all" style="stroke: rgb(0, 0, 0);"/><path d="M 49.88 60 C 63.44 60.46 75.55 70.21 80.94 85 C 75.55 99.79 63.44 109.54 49.88 110 L 30.47 110 C 38.79 94.53 38.79 75.47 30.47 60 Z" fill="#ffffff" stroke="#000000" stroke-miterlimit="10" transform="rotate(90,57.64,85)" pointer-events="all" style="fill: rgb(255, 255, 255); stroke: rgb(0, 0, 0);"/></g></g><g data-cell-id="AZdDgHaiwRHL2_zeWa7p-13"><g transform="translate(0.5,0.5)"><path d="M 93.24 25 L 99.24 25" fill="#ffffff" stroke="#000000" stroke-miterlimit="10" transform="rotate(90,108.24,25)" pointer-events="all" style="fill: rgb(255, 255, 255); stroke: rgb(0, 0, 0);"/><path d="M 118.44 25 L 123.24 25" fill="#ffffff" stroke="#000000" stroke-miterlimit="10" transform="rotate(90,108.24,25)" pointer-events="all" style="fill: rgb(255, 255, 255); stroke: rgb(0, 0, 0);"/><path d="M 116.34 25 L 98.34 36.76 L 98.34 13.24 Z" fill="#ffffff" stroke="#000000" stroke-miterlimit="10" transform="rotate(90,108.24,25)" pointer-events="all" style="fill: rgb(255, 255, 255); stroke: rgb(0, 0, 0);"/><ellipse cx="117.54" cy="25" rx="1.2" ry="1.5686666666666667" fill="#ffffff" stroke="#000000" transform="rotate(90,108.24,25)" pointer-events="all" style="fill: rgb(255, 255, 255); stroke: rgb(0, 0, 0);"/></g></g><g data-cell-id="AZdDgHaiwRHL2_zeWa7p-14"><g transform="translate(0.5,0.5)"><path d="M 70.14 46.18 Q 70.14 46.18 108.24 40" fill="none" stroke="#000000" stroke-miterlimit="10" pointer-events="stroke" style="stroke: rgb(0, 0, 0);"/></g></g><g data-cell-id="AZdDgHaiwRHL2_zeWa7p-15"><g transform="translate(0.5,0.5)"><path d="M 0 40 Q 0 40 45.14 46.18" fill="none" stroke="#000000" stroke-miterlimit="10" pointer-events="stroke" style="stroke: rgb(0, 0, 0);"/></g></g></g></g></g></svg>