<?xml version="1.0" encoding="UTF-8"?>
<!DOCTYPE svg PUBLIC "-//W3C//DTD SVG 1.1//EN" "http://www.w3.org/Graphics/SVG/1.1/DTD/svg11.dtd">
<svg xmlns="http://www.w3.org/2000/svg" style="background: #ffffff; background-color: #ffffff; color-scheme: light;" xmlns:xlink="http://www.w3.org/1999/xlink" version="1.1" width="52px" height="119px" viewBox="0 0 52 119"><defs/><rect fill="#ffffff" width="100%" height="100%" x="0" y="0" style="fill: rgb(255, 255, 255);"/><g><g data-cell-id="0"><g data-cell-id="1"><g data-cell-id="Rxoadc6pyPcFEL9LNfed-5"><g><path d="M 11.1 24.65 L 21.1 24.65" fill="#ffffff" stroke="#000000" stroke-miterlimit="10" transform="rotate(90,36.1,24.65)" pointer-events="all" style="fill: rgb(255, 255, 255); stroke: rgb(0, 0, 0);"/><path d="M 53.1 24.65 L 61.1 24.65" fill="#ffffff" stroke="#000000" stroke-miterlimit="10" transform="rotate(90,36.1,24.65)" pointer-events="all" style="fill: rgb(255, 255, 255); stroke: rgb(0, 0, 0);"/><path d="M 49.6 24.65 L 19.6 38.4 L 19.6 10.9 Z" fill="#ffffff" stroke="#000000" stroke-miterlimit="10" transform="rotate(90,36.1,24.65)" pointer-events="all" style="fill: rgb(255, 255, 255); stroke: rgb(0, 0, 0);"/><ellipse cx="51.6" cy="24.65" rx="2" ry="1.8333333333333333" fill="#ffffff" stroke="#000000" transform="rotate(90,36.1,24.65)" pointer-events="all" style="fill: rgb(255, 255, 255); stroke: rgb(0, 0, 0);"/></g></g><g data-cell-id="Rxoadc6pyPcFEL9LNfed-12"><g><path d="M 0 0.98 Q 0 0.98 0 42" fill="none" stroke="#000000" stroke-miterlimit="10" pointer-events="stroke" style="stroke: rgb(0, 0, 0);"/></g></g><g data-cell-id="Rxoadc6pyPcFEL9LNfed-16"><g><path d="M 30.3 70.44 Q 30.3 70.44 36.1 71.05" fill="none" stroke="#000000" stroke-miterlimit="10" pointer-events="stroke" style="stroke: rgb(0, 0, 0);"/></g></g><g data-cell-id="Rxoadc6pyPcFEL9LNfed-18"><g><path d="M 0 63.4 Q 0 63.4 9.37 70.44" fill="none" stroke="#000000" stroke-miterlimit="10" pointer-events="stroke" style="stroke: rgb(0, 0, 0);"/></g></g><g data-cell-id="Rxoadc6pyPcFEL9LNfed-25"><g><path d="M 41.06 82.24 L 55.2 82.24 M -15.52 72.12 L 0.75 72.12 M -15.52 92.36 L 0.75 92.36" fill="none" stroke="#000000" stroke-miterlimit="10" transform="rotate(90,19.84,82.24)" pointer-events="all" style="stroke: rgb(0, 0, 0);"/><path d="M 12.77 62 C 25.12 62.38 36.15 70.27 41.06 82.24 C 36.15 94.21 25.12 102.1 12.77 102.48 L -4.91 102.48 C 2.67 89.96 2.67 74.52 -4.91 62 Z" fill="#ffffff" stroke="#000000" stroke-miterlimit="10" transform="rotate(90,19.84,82.24)" pointer-events="all" style="fill: rgb(255, 255, 255); stroke: rgb(0, 0, 0);"/></g></g><g data-cell-id="Rxoadc6pyPcFEL9LNfed-26"><g><path d="M 29.96 46.88 Q 29.96 46.88 36.1 49.65" fill="none" stroke="#000000" stroke-miterlimit="10" pointer-events="stroke" style="stroke: rgb(0, 0, 0);"/></g></g><g data-cell-id="Rxoadc6pyPcFEL9LNfed-27"><g><path d="M 9.72 46.88 Q 9.72 46.88 0 42" fill="none" stroke="#000000" stroke-miterlimit="10" pointer-events="stroke" style="stroke: rgb(0, 0, 0);"/></g></g></g></g></g></svg>