<?xml version="1.0" encoding="UTF-8"?>
<!DOCTYPE svg PUBLIC "-//W3C//DTD SVG 1.1//EN" "http://www.w3.org/Graphics/SVG/1.1/DTD/svg11.dtd">
<svg xmlns="http://www.w3.org/2000/svg" style="background: #ffffff; background-color: #ffffff; color-scheme: light;" xmlns:xlink="http://www.w3.org/1999/xlink" version="1.1" width="112px" height="111px" viewBox="0 0 112 111"><defs/><rect fill="#ffffff" width="100%" height="100%" x="0" y="0" style="fill: rgb(255, 255, 255);"/><g><g data-cell-id="0"><g data-cell-id="1"><g data-cell-id="aBIJvxdQVkdbdgmFZ_Es-4"><g transform="translate(0.5,0.5)"><path d="M 60 10 Q 60 10 60 0" fill="none" stroke="#000000" stroke-miterlimit="10" pointer-events="stroke" style="stroke: rgb(0, 0, 0);"/></g></g><g data-cell-id="AZdDgHaiwRHL2_zeWa7p-11"><g transform="translate(0.5,0.5)"><path d="M 0 10 Q 0 10 0 0" fill="none" stroke="#000000" stroke-miterlimit="10" pointer-events="stroke" style="stroke: rgb(0, 0, 0);"/></g></g><g data-cell-id="AZdDgHaiwRHL2_zeWa7p-22"><g transform="translate(0.5,0.5)"><path d="M 30 60 Q 30 60 50 60" fill="none" stroke="#000000" stroke-miterlimit="10" pointer-events="stroke" style="stroke: rgb(0, 0, 0);"/></g></g><g data-cell-id="fhbNrwuEqqf_BVJp3o0S-1"><g transform="translate(0.5,0.5)"><path d="M 45 35 L 55 35 M 5 25 L 16.5 25 M 5 45 L 16.5 45" fill="none" stroke="#000000" stroke-miterlimit="10" transform="rotate(90,30,35)" pointer-events="all" style="stroke: rgb(0, 0, 0);"/><path d="M 10 15 C 15.36 27.38 15.36 42.62 10 55" fill="none" stroke="#000000" stroke-miterlimit="10" transform="rotate(90,30,35)" pointer-events="all" style="stroke: rgb(0, 0, 0);"/><path d="M 25 15 C 33.73 15.37 41.53 23.17 45 35 C 41.53 46.83 33.73 54.63 25 55 L 12.5 55 C 17.86 42.62 17.86 27.38 12.5 15 Z" fill="#ffffff" stroke="#000000" stroke-miterlimit="10" transform="rotate(90,30,35)" pointer-events="all" style="fill: rgb(255, 255, 255); stroke: rgb(0, 0, 0);"/></g></g><g data-cell-id="fhbNrwuEqqf_BVJp3o0S-3"><g transform="translate(0.5,0.5)"><path d="M 75 85 L 85 85 M 35 75 L 46.5 75 M 35 95 L 46.5 95" fill="none" stroke="#000000" stroke-miterlimit="10" transform="rotate(90,60,85)" pointer-events="all" style="stroke: rgb(0, 0, 0);"/><path d="M 40 65 C 45.36 77.38 45.36 92.62 40 105" fill="none" stroke="#000000" stroke-miterlimit="10" transform="rotate(90,60,85)" pointer-events="all" style="stroke: rgb(0, 0, 0);"/><path d="M 55 65 C 63.73 65.37 71.53 73.17 75 85 C 71.53 96.83 63.73 104.63 55 105 L 42.5 105 C 47.86 92.62 47.86 77.38 42.5 65 Z" fill="#ffffff" stroke="#000000" stroke-miterlimit="10" transform="rotate(90,60,85)" pointer-events="all" style="fill: rgb(255, 255, 255); stroke: rgb(0, 0, 0);"/></g></g><g data-cell-id="fhbNrwuEqqf_BVJp3o0S-5"><g transform="translate(0.5,0.5)"><path d="M 70 60 Q 70 60 110 60" fill="none" stroke="#000000" stroke-miterlimit="10" pointer-events="stroke" style="stroke: rgb(0, 0, 0);"/></g></g><g data-cell-id="fhbNrwuEqqf_BVJp3o0S-6"><g transform="translate(0.5,0.5)"><path d="M 110 0 Q 110 0 110 60" fill="none" stroke="#000000" stroke-miterlimit="10" pointer-events="stroke" style="stroke: rgb(0, 0, 0);"/></g></g><g data-cell-id="fhbNrwuEqqf_BVJp3o0S-7"><g transform="translate(0.5,0.5)"><path d="M 0 10 Q 0 10 20 10" fill="none" stroke="#000000" stroke-miterlimit="10" pointer-events="stroke" style="stroke: rgb(0, 0, 0);"/></g></g><g data-cell-id="fhbNrwuEqqf_BVJp3o0S-8"><g transform="translate(0.5,0.5)"><path d="M 60 10 Q 60 10 40 10" fill="none" stroke="#000000" stroke-miterlimit="10" pointer-events="stroke" style="stroke: rgb(0, 0, 0);"/></g></g></g></g></g></svg>