<?xml version="1.0" encoding="UTF-8"?>
<!DOCTYPE svg PUBLIC "-//W3C//DTD SVG 1.1//EN" "http://www.w3.org/Graphics/SVG/1.1/DTD/svg11.dtd">
<svg xmlns="http://www.w3.org/2000/svg" style="background: #ffffff; background-color: #ffffff; color-scheme: light;" xmlns:xlink="http://www.w3.org/1999/xlink" version="1.1" width="151px" height="111px" viewBox="0 0 151 111"><defs/><rect fill="#ffffff" width="100%" height="100%" x="0" y="0" style="fill: rgb(255, 255, 255);"/><g><g data-cell-id="0"><g data-cell-id="1"><g data-cell-id="aBIJvxdQVkdbdgmFZ_Es-4"><g transform="translate(0.5,0.5)"><path d="M 80 10 Q 80 10 80 0" fill="none" stroke="#000000" stroke-miterlimit="10" pointer-events="stroke" style="stroke: rgb(0, 0, 0);"/></g></g><g data-cell-id="AZdDgHaiwRHL2_zeWa7p-11"><g transform="translate(0.5,0.5)"><path d="M 20 10 Q 20 10 20 0" fill="none" stroke="#000000" stroke-miterlimit="10" pointer-events="stroke" style="stroke: rgb(0, 0, 0);"/></g></g><g data-cell-id="fhbNrwuEqqf_BVJp3o0S-5"><g transform="translate(0.5,0.5)"><path d="M 90 60 Q 90 60 130 60" fill="none" stroke="#000000" stroke-miterlimit="10" pointer-events="stroke" style="stroke: rgb(0, 0, 0);"/></g></g><g data-cell-id="fhbNrwuEqqf_BVJp3o0S-6"><g transform="translate(0.5,0.5)"><path d="M 130 0 Q 130 0 130 10" fill="none" stroke="#000000" stroke-miterlimit="10" pointer-events="stroke" style="stroke: rgb(0, 0, 0);"/></g></g><g data-cell-id="fhbNrwuEqqf_BVJp3o0S-9"><g transform="translate(0.5,0.5)"><path d="M 95 85 L 105 85 M 55 75 L 65 75 M 55 95 L 65 95" fill="none" stroke="#000000" stroke-miterlimit="10" transform="rotate(90,80,85)" pointer-events="all" style="stroke: rgb(0, 0, 0);"/><path d="M 65 65 L 80 65 C 88.28 65 95 73.95 95 85 C 95 96.05 88.28 105 80 105 L 65 105 Z" fill="#ffffff" stroke="#000000" stroke-miterlimit="10" transform="rotate(90,80,85)" pointer-events="all" style="fill: rgb(255, 255, 255); stroke: rgb(0, 0, 0);"/></g></g><g data-cell-id="fhbNrwuEqqf_BVJp3o0S-11"><g transform="translate(0.5,0.5)"><path d="M 55 35 L 65 35" fill="#ffffff" stroke="#000000" stroke-miterlimit="10" transform="rotate(90,80,35)" pointer-events="all" style="fill: rgb(255, 255, 255); stroke: rgb(0, 0, 0);"/><path d="M 97 35 L 105 35" fill="#ffffff" stroke="#000000" stroke-miterlimit="10" transform="rotate(90,80,35)" pointer-events="all" style="fill: rgb(255, 255, 255); stroke: rgb(0, 0, 0);"/><path d="M 93.5 35 L 63.5 55 L 63.5 15 Z" fill="#ffffff" stroke="#000000" stroke-miterlimit="10" transform="rotate(90,80,35)" pointer-events="all" style="fill: rgb(255, 255, 255); stroke: rgb(0, 0, 0);"/><ellipse cx="95.5" cy="35" rx="2" ry="2.6666666666666665" fill="#ffffff" stroke="#000000" transform="rotate(90,80,35)" pointer-events="all" style="fill: rgb(255, 255, 255); stroke: rgb(0, 0, 0);"/></g></g><g data-cell-id="fhbNrwuEqqf_BVJp3o0S-12"><g transform="translate(0.5,0.5)"><path d="M -5 35 L 5 35" fill="#ffffff" stroke="#000000" stroke-miterlimit="10" transform="rotate(90,20,35)" pointer-events="all" style="fill: rgb(255, 255, 255); stroke: rgb(0, 0, 0);"/><path d="M 37 35 L 45 35" fill="#ffffff" stroke="#000000" stroke-miterlimit="10" transform="rotate(90,20,35)" pointer-events="all" style="fill: rgb(255, 255, 255); stroke: rgb(0, 0, 0);"/><path d="M 33.5 35 L 3.5 55 L 3.5 15 Z" fill="#ffffff" stroke="#000000" stroke-miterlimit="10" transform="rotate(90,20,35)" pointer-events="all" style="fill: rgb(255, 255, 255); stroke: rgb(0, 0, 0);"/><ellipse cx="35.5" cy="35" rx="2" ry="2.6666666666666665" fill="#ffffff" stroke="#000000" transform="rotate(90,20,35)" pointer-events="all" style="fill: rgb(255, 255, 255); stroke: rgb(0, 0, 0);"/></g></g><g data-cell-id="fhbNrwuEqqf_BVJp3o0S-13"><g transform="translate(0.5,0.5)"><path d="M 70 60 Q 70 60 20 60" fill="none" stroke="#000000" stroke-miterlimit="10" pointer-events="stroke" style="stroke: rgb(0, 0, 0);"/></g></g><g data-cell-id="fhbNrwuEqqf_BVJp3o0S-14"><g transform="translate(0.5,0.5)"><path d="M 80 60 Q 80 60 80.04 69.05" fill="none" stroke="#000000" stroke-miterlimit="10" pointer-events="stroke" style="stroke: rgb(0, 0, 0);"/></g></g><g data-cell-id="fhbNrwuEqqf_BVJp3o0S-15"><g transform="translate(0.5,0.5)"><path d="M 105 35 L 115 35 M 145 35 L 155 35" fill="none" stroke="#000000" stroke-miterlimit="10" transform="rotate(90,130,35)" pointer-events="all" style="stroke: rgb(0, 0, 0);"/><path d="M 115 15 L 145 35 L 115 55 Z" fill="#ffffff" stroke="#000000" stroke-miterlimit="10" transform="rotate(90,130,35)" pointer-events="all" style="fill: rgb(255, 255, 255); stroke: rgb(0, 0, 0);"/></g></g></g></g></g></svg>