<?xml version="1.0" encoding="UTF-8"?>
<!DOCTYPE svg PUBLIC "-//W3C//DTD SVG 1.1//EN" "http://www.w3.org/Graphics/SVG/1.1/DTD/svg11.dtd">
<svg xmlns="http://www.w3.org/2000/svg" style="background: #ffffff; background-color: #ffffff; color-scheme: light;" xmlns:xlink="http://www.w3.org/1999/xlink" version="1.1" width="121px" height="121px" viewBox="0 0 121 121"><defs/><rect fill="#ffffff" width="100%" height="100%" x="0" y="0" style="fill: rgb(255, 255, 255);"/><g><g data-cell-id="0"><g data-cell-id="1"><g data-cell-id="aBIJvxdQVkdbdgmFZ_Es-4"><g transform="translate(0.5,0.5)"><path d="M 60 10 Q 60 10 60 0" fill="none" stroke="#000000" stroke-miterlimit="10" pointer-events="stroke" style="stroke: rgb(0, 0, 0);"/></g></g><g data-cell-id="AZdDgHaiwRHL2_zeWa7p-11"><g transform="translate(0.5,0.5)"><path d="M 0 40 Q 0 40 0 0" fill="none" stroke="#000000" stroke-miterlimit="10" pointer-events="stroke" style="stroke: rgb(0, 0, 0);"/></g></g><g data-cell-id="fhbNrwuEqqf_BVJp3o0S-5"><g transform="translate(0.5,0.5)"><path d="M 67.5 80 Q 67.5 80 105 80" fill="none" stroke="#000000" stroke-miterlimit="10" pointer-events="stroke" style="stroke: rgb(0, 0, 0);"/></g></g><g data-cell-id="fhbNrwuEqqf_BVJp3o0S-6"><g transform="translate(0.5,0.5)"><path d="M 110 0 Q 110 0 112.5 40" fill="none" stroke="#000000" stroke-miterlimit="10" pointer-events="stroke" style="stroke: rgb(0, 0, 0);"/></g></g><g data-cell-id="fhbNrwuEqqf_BVJp3o0S-13"><g transform="translate(0.5,0.5)"><path d="M 52.5 80 Q 52.5 80 34.9 80" fill="none" stroke="#000000" stroke-miterlimit="10" pointer-events="stroke" style="stroke: rgb(0, 0, 0);"/></g></g><g data-cell-id="fhbNrwuEqqf_BVJp3o0S-16"><g transform="translate(0.5,0.5)"><path d="M 72 100 L 80 100 M 40 92.5 L 49.2 92.5 M 40 107.5 L 49.2 107.5" fill="none" stroke="#000000" stroke-miterlimit="10" transform="rotate(90,60,100)" pointer-events="all" style="stroke: rgb(0, 0, 0);"/><path d="M 56 85 C 62.99 85.28 69.22 91.13 72 100 C 69.22 108.87 62.99 114.72 56 115 L 46 115 C 50.29 105.72 50.29 94.28 46 85 Z" fill="#ffffff" stroke="#000000" stroke-miterlimit="10" transform="rotate(90,60,100)" pointer-events="all" style="fill: rgb(255, 255, 255); stroke: rgb(0, 0, 0);"/></g></g><g data-cell-id="fhbNrwuEqqf_BVJp3o0S-17"><g transform="translate(0.5,0.5)"><path d="M 46.9 60 L 54.9 60 M 14.9 52.5 L 22.9 52.5 M 14.9 67.5 L 22.9 67.5" fill="none" stroke="#000000" stroke-miterlimit="10" transform="rotate(90,34.9,60)" pointer-events="all" style="stroke: rgb(0, 0, 0);"/><path d="M 22.9 45 L 34.9 45 C 41.53 45 46.9 51.72 46.9 60 C 46.9 68.28 41.53 75 34.9 75 L 22.9 75 Z" fill="#ffffff" stroke="#000000" stroke-miterlimit="10" transform="rotate(90,34.9,60)" pointer-events="all" style="fill: rgb(255, 255, 255); stroke: rgb(0, 0, 0);"/></g></g><g data-cell-id="fhbNrwuEqqf_BVJp3o0S-18"><g transform="translate(0.5,0.5)"><path d="M 45 25 L 51 25" fill="#ffffff" stroke="#000000" stroke-miterlimit="10" transform="rotate(90,60,25)" pointer-events="all" style="fill: rgb(255, 255, 255); stroke: rgb(0, 0, 0);"/><path d="M 70.2 25 L 75 25" fill="#ffffff" stroke="#000000" stroke-miterlimit="10" transform="rotate(90,60,25)" pointer-events="all" style="fill: rgb(255, 255, 255); stroke: rgb(0, 0, 0);"/><path d="M 68.1 25 L 50.1 35.1 L 50.1 14.9 Z" fill="#ffffff" stroke="#000000" stroke-miterlimit="10" transform="rotate(90,60,25)" pointer-events="all" style="fill: rgb(255, 255, 255); stroke: rgb(0, 0, 0);"/><ellipse cx="69.3" cy="25" rx="1.2" ry="1.3466666666666667" fill="#ffffff" stroke="#000000" transform="rotate(90,60,25)" pointer-events="all" style="fill: rgb(255, 255, 255); stroke: rgb(0, 0, 0);"/></g></g><g data-cell-id="fhbNrwuEqqf_BVJp3o0S-19"><g transform="translate(0.5,0.5)"><path d="M 27.4 40 Q 27.4 40 0 40" fill="none" stroke="#000000" stroke-miterlimit="10" pointer-events="stroke" style="stroke: rgb(0, 0, 0);"/></g></g><g data-cell-id="fhbNrwuEqqf_BVJp3o0S-20"><g transform="translate(0.5,0.5)"><path d="M 42.4 40 Q 42.4 40 60 40" fill="none" stroke="#000000" stroke-miterlimit="10" pointer-events="stroke" style="stroke: rgb(0, 0, 0);"/></g></g><g data-cell-id="fhbNrwuEqqf_BVJp3o0S-21"><g transform="translate(0.5,0.5)"><path d="M 60 10 Q 60 10 90 10" fill="none" stroke="#000000" stroke-miterlimit="10" pointer-events="stroke" style="stroke: rgb(0, 0, 0);"/></g></g><g data-cell-id="fhbNrwuEqqf_BVJp3o0S-22"><g transform="translate(0.5,0.5)"><path d="M 97.5 40 Q 97.5 40 90 10" fill="none" stroke="#000000" stroke-miterlimit="10" pointer-events="stroke" style="stroke: rgb(0, 0, 0);"/></g></g><g data-cell-id="fhbNrwuEqqf_BVJp3o0S-23"><g transform="translate(0.5,0.5)"><path d="M 117 60 L 125 60 M 85 52.5 L 93 52.5 M 85 67.5 L 93 67.5" fill="none" stroke="#000000" stroke-miterlimit="10" transform="rotate(90,105,60)" pointer-events="all" style="stroke: rgb(0, 0, 0);"/><path d="M 93 45 L 105 45 C 111.63 45 117 51.72 117 60 C 117 68.28 111.63 75 105 75 L 93 75 Z" fill="#ffffff" stroke="#000000" stroke-miterlimit="10" transform="rotate(90,105,60)" pointer-events="all" style="fill: rgb(255, 255, 255); stroke: rgb(0, 0, 0);"/></g></g></g></g></g></svg>